#!OML:ASF X:\für Bonn\!DataBase\2005_08_11_Bastian_Final\c3d\Bastian.ASF
:FULLY-SPECIFIED
:DEGREES
147
root -0.245881 17.2606 6.61571 177.63 -10.4577 -178.862
lowerback 11.8732 -3.0822 -2.42286
upperback 3.87059 -4.74081 -0.0728382
thorax -2.40381 -2.52015 1.93148
lowerneck -12.4491 -7.58086 -3.40215
upperneck -3.56539 -9.10201 12.1284
head 1.69732 -3.88093 3.71676
rclavicle -2.5842e-015 -2.22639e-014
rhumerus 67.9827 20.5707 -11.4332
rradius 41.7283
rwrist -41.6693
rhand -44.9107 -1.67562
rfingers 7.12502
rthumb -17.6977 -30.8902
lclavicle -2.5842e-015 -2.22639e-014
lhumerus 60.2868 -19.9831 6.16507
lradius 34.2736
lwrist -6.90849
lhand -44.1891 7.56855
lfingers 7.12502
lthumb -17.0033 36.8444
rfemur -15.2975 -5.75464 23.929
rtibia 45.7674
rfoot -23.8808 -11.7245
rtoes 0.448173
lfemur -13.0325 0.136412 -19.0135
ltibia 37.1033
lfoot -14.5282 -10.8012
ltoes -8.66725
148
root -0.24993 17.3131 6.60251 177.652 -10.3821 -178.844
lowerback 11.6247 -3.07722 -2.42379
upperback 3.89183 -4.72429 -0.070276
thorax -2.24696 -2.51378 1.9138
lowerneck -12.2431 -7.56231 -3.46729
upperneck -3.66649 -9.08342 11.8503
head 1.77485 -3.90043 4.03535
rclavicle 2.08724e-014 -8.74653e-015
rhumerus 68.0971 20.4921 -10.8931
rradius 41.8699
rwrist -42.1434
rhand -45.1774 -1.66681
rfingers 7.12502
rthumb -17.9543 -30.8581
lclavicle 2.08724e-014 -8.74653e-015
lhumerus 60.2089 -19.6812 6.58249
lradius 34.1764
lwrist -7.39126
lhand -43.9717 7.31845
lfingers 7.12502
lthumb -16.794 36.6122
rfemur -14.7125 -5.10704 24.003
rtibia 44.8201
rfoot -23.6911 -12.1452
rtoes 0.854682
lfemur -12.2725 0.340885 -18.9734
ltibia 35.7493
lfoot -14.0093 -10.8278
ltoes -8.94771
149
root -0.253343 17.3571 6.58963 177.67 -10.3019 -178.78
lowerback 11.3829 -3.07696 -2.40433
upperback 3.91917 -4.71156 -0.0302713
thorax -2.08553 -2.50982 1.92422
lowerneck -12.1539 -7.53963 -3.46161
upperneck -3.65341 -9.0634 11.78
head 1.75654 -3.8993 4.01284
rclavicle 4.48259e-014 -4.33351e-014
rhumerus 68.2607 20.3693 -10.241
rradius 42.0409
rwrist -42.657
rhand -45.4745 -1.64838
rfingers 7.12502
rthumb -18.2402 -30.8132
lclavicle 4.48259e-014 -4.33351e-014
lhumerus 60.2095 -19.3809 6.6483
lradius 34.1593
lwrist -7.43336
lhand -43.7875 7.17495
lfingers 7.12502
lthumb -16.6166 36.4836
rfemur -14.1967 -4.39762 24.1491
rtibia 44.0001
rfoot -23.5765 -12.6566
rtoes 1.24096
lfemur -11.6147 0.554879 -18.8789
ltibia 34.5742
lfoot -13.5733 -10.8841
ltoes -9.1564
150
root -0.257372 17.3922 6.57704 177.648 -10.1943 -178.645
lowerback 11.2029 -3.07821 -2.30783
upperback 3.92937 -4.69388 0.0116128
thorax -1.98178 -2.50153 1.89847
lowerneck -11.9866 -7.51075 -3.45454
upperneck -3.67119 -9.03318 11.7435
head 1.71536 -3.89551 4.00515
rclavicle 1.88845e-015 3.26007e-014
rhumerus 68.4449 20.2192 -9.65221
rradius 42.1532
rwrist -43.1391
rhand -45.6797 -1.69681
rfingers 7.12502
rthumb -18.4376 -30.843
lclavicle 1.88845e-015 3.26007e-014
lhumerus 60.2452 -19.1417 6.43911
lradius 34.1998
lwrist -7.24904
lhand -43.637 7.07401
lfingers 7.12502
lthumb -16.4717 36.3948
rfemur -13.6997 -3.66212 24.3853
rtibia 43.2944
rfoot -23.5542 -13.2046
rtoes 1.38474
lfemur -11.0051 0.769045 -18.7032
ltibia 33.5665
lfoot -13.1857 -10.9544
ltoes -9.08161
151
root -0.260963 17.421 6.56502 177.668 -10.1149 -178.581
lowerback 10.9936 -3.078 -2.28451
upperback 3.94962 -4.6826 0.0419453
thorax -1.84644 -2.49753 1.89969
lowerneck -11.8862 -7.48677 -3.45791
upperneck -3.66343 -9.00866 11.719
head 1.69664 -3.89037 4.00137
rclavicle -1.90833e-014 1.98785e-014
rhumerus 68.6179 19.9667 -9.01127
rradius 42.2957
rwrist -43.6829
rhand -45.843 -1.76526
rfingers 7.12502
rthumb -18.5947 -30.8965
lclavicle -1.90833e-014 1.98785e-014
lhumerus 60.3871 -18.9088 5.93355
lradius 34.2985
lwrist -6.71933
lhand -43.5392 7.15301
lfingers 7.12502
lthumb -16.3776 36.4816
rfemur -13.2946 -2.90407 24.5634
rtibia 42.6918
rfoot -23.5956 -13.8239
rtoes 1.43144
lfemur -10.5119 0.986233 -18.6103
ltibia 32.7117
lfoot -12.894 -11.022
ltoes -9.24266
152
root -0.265312 17.444 6.55256 177.71 -9.9936 -178.543
lowerback 10.746 -3.06501 -2.26976
upperback 3.96945 -4.65429 0.052124
thorax -1.69241 -2.48489 1.88036
lowerneck -11.7322 -7.4604 -3.44671
upperneck -3.71069 -8.97593 11.696
head 1.64849 -3.88365 3.99778
rclavicle -9.44227e-015 -1.35174e-014
rhumerus 68.7852 19.6512 -8.45528
rradius 42.3983
rwrist -44.1304
rhand -45.8952 -1.977
rfingers 7.12502
rthumb -18.6449 -31.1035
lclavicle -9.44227e-015 -1.35174e-014
lhumerus 60.4179 -18.5307 6.03486
lradius 34.2302
lwrist -6.79663
lhand -43.3944 7.09923
lfingers 7.12502
lthumb -16.2381 36.4392
rfemur -12.9517 -2.0655 24.7213
rtibia 42.1809
rfoot -23.7014 -14.4689
rtoes 1.38535
lfemur -10.1134 1.22541 -18.5451
ltibia 32.0164
lfoot -12.6588 -11.1217
ltoes -9.24914
153
root -0.269526 17.4603 6.54127 177.756 -9.88933 -178.506
lowerback 10.515 -3.06002 -2.2698
upperback 3.98851 -4.63847 0.0812589
thorax -1.54478 -2.47865 1.8915
lowerneck -11.5945 -7.43997 -3.47689
upperneck -3.75823 -8.94647 11.6866
head 1.60688 -3.87732 4.00624
rclavicle 2.17669e-014 7.15625e-015
rhumerus 68.958 19.2835 -8.00618
rradius 42.4723
rwrist -44.4118
rhand -45.8321 -2.29606
rfingers 7.12502
rthumb -18.5842 -31.4283
lclavicle 2.17669e-014 7.15625e-015
lhumerus 60.4591 -18.1709 6.04466
lradius 34.1849
lwrist -6.68448
lhand -43.2927 7.11295
lfingers 7.12502
lthumb -16.1402 36.4609
rfemur -12.6619 -1.17635 24.9002
rtibia 41.7582
rfoot -23.8165 -15.2158
rtoes 1.25483
lfemur -9.80039 1.50024 -18.4753
ltibia 31.4643
lfoot -12.4759 -11.284
ltoes -9.11918
